<svg id="Layer_1" data-name="Layer 1" xmlns="http://www.w3.org/2000/svg" viewBox="0 0 325.77 59.4"><defs><style>.cls-1{fill:#ff0;}.cls-2{fill:#a2ffff;}.cls-3{fill:#007992;}</style></defs><circle class="cls-1" cx="34.99" cy="11.67" r="2.37"/><path class="cls-2" d="M44.25,22l-1.12,5.7A1.9,1.9,0,0,0,45,30h0a2.08,2.08,0,0,0,2-2.48L46,22A.87.87,0,0,0,44.25,22Z" transform="translate(-10.11 -6.67)"/><path class="cls-2" d="M44.25,14.64l-1.12-5.7A1.91,1.91,0,0,1,45,6.67h0a2.08,2.08,0,0,1,2,2.48L46,14.64A.86.86,0,0,1,44.25,14.64Z" transform="translate(-10.11 -6.67)"/><path class="cls-2" d="M48.77,19.2l5.7,1.12a1.9,1.9,0,0,0,2.27-1.87h0a2.08,2.08,0,0,0-2.48-2l-5.49,1.08A.87.87,0,0,0,48.77,19.2Z" transform="translate(-10.11 -6.67)"/><path class="cls-2" d="M41.39,19.2l-5.7,1.12a1.91,1.91,0,0,1-2.27-1.87h0a2.08,2.08,0,0,1,2.48-2l5.49,1.08A.87.87,0,0,1,41.39,19.2Z" transform="translate(-10.11 -6.67)"/><path class="cls-2" d="M47.13,21.5l3.24,4.82a1.9,1.9,0,0,0,2.92.29h0a2.08,2.08,0,0,0-.31-3.2L48.34,20.3A.87.87,0,0,0,47.13,21.5Z" transform="translate(-10.11 -6.67)"/><path class="cls-2" d="M41.91,16.28,37.09,13a1.9,1.9,0,0,1-.28-2.92h0a2.07,2.07,0,0,1,3.19.31l3.12,4.64A.87.87,0,0,1,41.91,16.28Z" transform="translate(-10.11 -6.67)"/><path class="cls-2" d="M43,21.5l-3.24,4.82a1.9,1.9,0,0,1-2.92.29h0a2.08,2.08,0,0,1,.31-3.2l4.64-3.11A.87.87,0,0,1,43,21.5Z" transform="translate(-10.11 -6.67)"/><path class="cls-2" d="M48.24,16.28,53.06,13a1.9,1.9,0,0,0,.28-2.92h0a2.07,2.07,0,0,0-3.19.31L47,15.07A.87.87,0,0,0,48.24,16.28Z" transform="translate(-10.11 -6.67)"/><circle class="cls-1" cx="60.74" cy="19.66" r="2.37"/><path class="cls-2" d="M70,30l-1.11,5.7A1.9,1.9,0,0,0,70.75,38h0a2.08,2.08,0,0,0,2-2.48L71.71,30A.87.87,0,0,0,70,30Z" transform="translate(-10.11 -6.67)"/><path class="cls-2" d="M70,22.62l-1.11-5.69a1.89,1.89,0,0,1,1.86-2.27h0a2.08,2.08,0,0,1,2,2.48l-1.08,5.48A.87.87,0,0,1,70,22.62Z" transform="translate(-10.11 -6.67)"/><path class="cls-2" d="M74.53,27.18l5.7,1.12a1.91,1.91,0,0,0,2.27-1.86h0a2.08,2.08,0,0,0-2.48-2l-5.49,1.07A.87.87,0,0,0,74.53,27.18Z" transform="translate(-10.11 -6.67)"/><path class="cls-2" d="M67.15,27.18l-5.7,1.12a1.9,1.9,0,0,1-2.27-1.86h0a2.08,2.08,0,0,1,2.48-2l5.49,1.07A.87.87,0,0,1,67.15,27.18Z" transform="translate(-10.11 -6.67)"/><path class="cls-2" d="M72.89,29.49l3.24,4.82a1.9,1.9,0,0,0,2.92.28h0a2.07,2.07,0,0,0-.31-3.19L74.1,28.28A.87.87,0,0,0,72.89,29.49Z" transform="translate(-10.11 -6.67)"/><path class="cls-2" d="M67.67,24.27,62.85,21a1.9,1.9,0,0,1-.29-2.92h0a2.08,2.08,0,0,1,3.2.31l3.12,4.64A.87.87,0,0,1,67.67,24.27Z" transform="translate(-10.11 -6.67)"/><path class="cls-2" d="M68.78,29.49l-3.24,4.82a1.9,1.9,0,0,1-2.92.28h0a2.07,2.07,0,0,1,.31-3.19l4.64-3.12A.87.87,0,0,1,68.78,29.49Z" transform="translate(-10.11 -6.67)"/><path class="cls-2" d="M74,24.27,78.82,21a1.9,1.9,0,0,0,.28-2.92h0a2.07,2.07,0,0,0-3.19.31l-3.12,4.64A.87.87,0,0,0,74,24.27Z" transform="translate(-10.11 -6.67)"/><circle class="cls-1" cx="11.67" cy="26.98" r="2.37"/><path class="cls-2" d="M20.93,37.33,19.81,43a1.9,1.9,0,0,0,1.87,2.27h0a2.08,2.08,0,0,0,2-2.48l-1.08-5.49A.87.87,0,0,0,20.93,37.33Z" transform="translate(-10.11 -6.67)"/><path class="cls-2" d="M20.93,30l-1.12-5.7A1.91,1.91,0,0,1,21.68,22h0a2.09,2.09,0,0,1,2,2.48L22.64,30A.87.87,0,0,1,20.93,30Z" transform="translate(-10.11 -6.67)"/><path class="cls-2" d="M25.46,34.51l5.7,1.12a1.9,1.9,0,0,0,2.26-1.87h0a2.07,2.07,0,0,0-2.47-2L25.46,32.8A.87.87,0,0,0,25.46,34.51Z" transform="translate(-10.11 -6.67)"/><path class="cls-2" d="M18.07,34.51l-5.7,1.12a1.9,1.9,0,0,1-2.26-1.87h0a2.08,2.08,0,0,1,2.48-2l5.48,1.08A.87.87,0,0,1,18.07,34.51Z" transform="translate(-10.11 -6.67)"/><path class="cls-2" d="M23.82,36.81l3.23,4.82a1.91,1.91,0,0,0,2.93.29h0a2.09,2.09,0,0,0-.31-3.2L25,35.6A.87.87,0,0,0,23.82,36.81Z" transform="translate(-10.11 -6.67)"/><path class="cls-2" d="M18.59,31.59l-4.82-3.24a1.9,1.9,0,0,1-.28-2.92h0a2.07,2.07,0,0,1,3.19.31l3.12,4.64A.87.87,0,0,1,18.59,31.59Z" transform="translate(-10.11 -6.67)"/><path class="cls-2" d="M19.7,36.81l-3.24,4.82a1.9,1.9,0,0,1-2.92.29h0a2.09,2.09,0,0,1,.31-3.2l4.64-3.12A.87.87,0,0,1,19.7,36.81Z" transform="translate(-10.11 -6.67)"/><path class="cls-2" d="M24.92,31.59l4.82-3.24A1.9,1.9,0,0,0,30,25.43h0a2.08,2.08,0,0,0-3.2.31l-3.11,4.64A.87.87,0,0,0,24.92,31.59Z" transform="translate(-10.11 -6.67)"/><path class="cls-3" d="M50.89,57.21a4.43,4.43,0,0,1-1.27.92c-.45.28-.89.55-1.34.79l-5.64,3.56a13,13,0,0,1-6.88,1.92,8.52,8.52,0,0,1-3.8-.72,5.87,5.87,0,0,1-2.67-2.74,7.54,7.54,0,0,1-1.13-3.42,13.49,13.49,0,0,1,3-8.46,29.13,29.13,0,0,1,6.23-6.29c2.36-1.58,4-2.36,5-2.36a5.06,5.06,0,0,1,1.64.3,12.16,12.16,0,0,1,2.16,3.22,9.1,9.1,0,0,1,1.13,3.59,1.73,1.73,0,0,1-1.75,1.82,2.43,2.43,0,0,1-.85-.17c-.58-.24-1-1.68-1.27-4.25-1.54.11-3.42,1.17-5.71,3.22a27.13,27.13,0,0,0-4.52,5.07,11.36,11.36,0,0,0-1.95,6,6.18,6.18,0,0,0,3.49,1.2,14.85,14.85,0,0,0,5.34-1.64A42.91,42.91,0,0,0,45.2,56,20.74,20.74,0,0,0,47,54.58a6.17,6.17,0,0,1,1.64-1.1c.55,0,1.1.41,1.61,1.2a4,4,0,0,1,.79,2A.63.63,0,0,1,50.89,57.21Z" transform="translate(-10.11 -6.67)"/><path class="cls-3" d="M72,61.35a18.06,18.06,0,0,1-10.75,3.53,11.32,11.32,0,0,1-4.18-1c-2.29-.92-3.45-2.46-3.45-4.62A2.39,2.39,0,0,1,55.79,57c.41,0,.62.24.62.75,0,.24-.1.72-.1.89,0,.69.61,1.2,1.84,1.54a11.32,11.32,0,0,0,2.78.31A17.09,17.09,0,0,0,64.86,60c3-.79,5.14-1.64,5.82-3.39-.1-.92-1.74-1.71-4.86-2.36a48.65,48.65,0,0,0-6.06-.79,11.92,11.92,0,0,1-5.4-1.33c-.83-.48-1.24-1.85-1.24-4.08a2.65,2.65,0,0,1,.38-1.61,16.42,16.42,0,0,1,5.85-4.24,17.15,17.15,0,0,1,7.09-2c1.88,0,3.21.55,3.93,1.61a5.65,5.65,0,0,1,1,3.32c0,1.2-.72,1.81-2.12,1.81-.55,0-.89-.17-1-.54a6.84,6.84,0,0,1-.14-1c-.13-.82-.78-.89-1.78-.89a14,14,0,0,0-4.89,1.1,9.38,9.38,0,0,0-4.11,2.73,27.27,27.27,0,0,0,5.72,1.41c2.94.44,4.89.82,5.82,1.06,2.91.78,4.48,2.12,4.69,4a26.22,26.22,0,0,1,.24,2.88A4.31,4.31,0,0,1,72,61.35Z" transform="translate(-10.11 -6.67)"/><path class="cls-3" d="M95,61.35a18,18,0,0,1-10.74,3.53,11.32,11.32,0,0,1-4.18-1c-2.29-.92-3.46-2.46-3.46-4.62A2.39,2.39,0,0,1,78.77,57c.41,0,.62.24.62.75,0,.24-.11.72-.11.89,0,.69.62,1.2,1.85,1.54a11.26,11.26,0,0,0,2.78.31A17.09,17.09,0,0,0,87.84,60c3-.79,5.14-1.64,5.82-3.39-.1-.92-1.75-1.71-4.86-2.36a48.65,48.65,0,0,0-6.06-.79,12,12,0,0,1-5.41-1.33c-.82-.48-1.23-1.85-1.23-4.08a2.65,2.65,0,0,1,.38-1.61,16.42,16.42,0,0,1,5.85-4.24,17.11,17.11,0,0,1,7.08-2c1.89,0,3.22.55,3.94,1.61a5.65,5.65,0,0,1,1,3.32c0,1.2-.72,1.81-2.12,1.81-.55,0-.89-.17-1-.54a6.84,6.84,0,0,1-.14-1c-.13-.82-.78-.89-1.78-.89a14,14,0,0,0-4.89,1.1,9.38,9.38,0,0,0-4.11,2.73A27.27,27.27,0,0,0,86,49.65c2.94.44,4.89.82,5.82,1.06,2.9.78,4.48,2.12,4.68,4a23.87,23.87,0,0,1,.24,2.88A4.28,4.28,0,0,1,95,61.35Z" transform="translate(-10.11 -6.67)"/><path class="cls-3" d="M130.88,62.58c-.3,0-1-.1-1.33-.1a39.41,39.41,0,0,0-5.75.58l-5.72,1c-2.63.34-4.14.52-4.55.52s-.92-.38-1.3-1.13a4.16,4.16,0,0,1-.45-1.82,3.33,3.33,0,0,1,.59-1.81c2.56-4,6.84-8.73,12.83-14.21a42.21,42.21,0,0,1-7.73.72,18,18,0,0,1-2.74-.17,2.09,2.09,0,0,1-1.37-1.26,4.08,4.08,0,0,1-.58-1.92c0-.79.48-1.17,1.47-1.17.27,0,.92.07,1.16.07a56.2,56.2,0,0,0,13.8-1.37c.54-.1,1,.35,1.43,1.34a6.18,6.18,0,0,1,.55,2.53,4,4,0,0,1-.17,1.13,34.08,34.08,0,0,1-2.6,2.33c-2.16,1.81-4.14,3.59-6,5.37-3,3-4.55,4.93-4.55,5.86,0,.27.27.41.86.41a22.27,22.27,0,0,0,3.62-.35l3.63-.54c.48,0,1.2-.11,2.12-.24,1.07-.21,1.65-.31,1.78-.31a1.72,1.72,0,0,1,1.61,1.13,5.58,5.58,0,0,1,.38,2.12C131.91,62.14,131.57,62.58,130.88,62.58Z" transform="translate(-10.11 -6.67)"/><path class="cls-3" d="M149.86,63.82a20.5,20.5,0,0,1-7.6,1.54c-2.4,0-4.14-.72-5.2-2.16a9.61,9.61,0,0,1-1.34-5.61,15,15,0,0,1,.48-3.87,31.18,31.18,0,0,0,.92-7,3.75,3.75,0,0,1-1.84-3.08,1.17,1.17,0,0,1,1.33-1.33c.58,0,2,.13,2.57.13a28.14,28.14,0,0,0,5-.54c1.64-.31,3.28-.65,4.92-1a11,11,0,0,1,1.24-.11c1.13,0,1.67.72,1.67,2.12a5.42,5.42,0,0,1-.06.79,1.66,1.66,0,0,1-1.27,1.17c-.48.13-2.26.41-5.37.78-2.54.31-4.15.75-4.86,1.27a9.36,9.36,0,0,0-.24,2.29c0,.34,0,.69,0,1h.48a17.74,17.74,0,0,0,5.1-.93,19.49,19.49,0,0,1,5-.95,2.36,2.36,0,0,1,2.33,2.43,1,1,0,0,1-.48,1c-.17.07-1.17.38-3,.89-4.56,1.23-8.05,2.09-10.51,2.57-.28.3-.41,1.57-.41,3.8a4.14,4.14,0,0,0,.17,1.71,4.58,4.58,0,0,0,2.7.61,15.25,15.25,0,0,0,5.51-1.23,12.64,12.64,0,0,0,4.73-2.91A.31.31,0,0,0,152,57a.83.83,0,0,0-.07-.27c-.14-.31.45-.62.86-.62s.92.34,1.3,1a3.27,3.27,0,0,1,.61,1.72Q154.68,61.87,149.86,63.82Z" transform="translate(-10.11 -6.67)"/><path class="cls-3" d="M177.32,64.19a1.27,1.27,0,0,1-1.33,1c-.69,0-2.06-1-4.11-2.91-1.3-1.23-2.57-2.53-3.77-3.9-2-2.22-4-4.35-6.09-6.37a50,50,0,0,0-.89,10.17c0,1,0,1.88.1,2.6a.92.92,0,0,1-.85.69,3.23,3.23,0,0,1-1.37-.35c-.58-.24-.86-1.61-.86-4.1,0-1.82.17-5.72.55-11.68,0-1.06.07-1.84.07-2.32a9,9,0,0,0-.28-1.85,8.94,8.94,0,0,1-.24-1.75,2.16,2.16,0,0,1,2-2c.54,0,1.09.58,1.61,1.71l1,2.57a46.31,46.31,0,0,0,5.2,7.18,28.45,28.45,0,0,0,6.68,5.82A10.35,10.35,0,0,0,175.2,55c0-1.68-.21-4.52-.65-8.56-.28-2.39-.41-3.86-.41-4.38a2.51,2.51,0,0,1,.41-1.37,1.31,1.31,0,0,1,1.16-.75,1.83,1.83,0,0,1,1.4.79,2.38,2.38,0,0,1,.65,1.57,5.4,5.4,0,0,1-.27,1.3,5.22,5.22,0,0,0-.27,1.3l0,.14c0,1.16.24,3.18.55,6.06a53.84,53.84,0,0,1,.48,6A21.09,21.09,0,0,1,177.32,64.19Z" transform="translate(-10.11 -6.67)"/><path class="cls-3" d="M220.19,53.86c-.51.07-1,.13-1.54.17l.51,1.09a3.18,3.18,0,0,1,.28,1.17,5.72,5.72,0,0,1-.07.61q-2,2.52-7.43,5.27c-.27.14-1.54.69-3.83,1.61a16.78,16.78,0,0,1-6.33,1.41,9,9,0,0,1-6-2,7.19,7.19,0,0,1-2.43-5.71,15,15,0,0,1,4.35-10.41,31.31,31.31,0,0,1,9.41-6.67,3.2,3.2,0,0,1,1.41-.31,3.32,3.32,0,0,1,2.84,1.51,5.65,5.65,0,0,1,.89,3.22c0,1.47-.59,2.22-1.75,2.22a.67.67,0,0,1-.61-.38,16.14,16.14,0,0,1-1.14-1.84c-5.5,1.67-9.58,5.37-12.18,11a4.38,4.38,0,0,0-.38,1.67A4,4,0,0,0,200,61.42c4.59,0,9.65-2,15.2-6a7.09,7.09,0,0,0-2.74-.34c-.51,0-1.23,0-2.22.06s-1.72.07-2.23.07c-1.4,0-2.22-.17-2.43-.55a4.84,4.84,0,0,1-.82-2.67c0-.85.27-1.26.86-1.26a12.16,12.16,0,0,1,1.23.24c.44,0,1.06.07,1.91.07a54.17,54.17,0,0,0,8.87-1.13,6.5,6.5,0,0,1,.72-.07,2.91,2.91,0,0,1,2.63,3C221,53.45,220.74,53.79,220.19,53.86Z" transform="translate(-10.11 -6.67)"/><path class="cls-3" d="M241.12,64.54c-1,0-2-.89-2.81-2.64a19.38,19.38,0,0,1-1.4-4,41.32,41.32,0,0,0-9,2.12,2.5,2.5,0,0,0-1.47,1.48,1.92,1.92,0,0,0-.2.88,3.28,3.28,0,0,0,0,.89v.9c0,.78-.42,1.16-1.24,1.16a2.71,2.71,0,0,1-2.8-2.47,25.1,25.1,0,0,1,1.57-8,51.27,51.27,0,0,1,3.87-8.22c2.29-3.93,4.17-5.92,5.65-5.92a5.41,5.41,0,0,1,4.89,3.08,15.15,15.15,0,0,1,1.64,5.86l.52,4.41c.17,1.75.27,3.25.27,4.45a5,5,0,0,0,1,2.81,5.65,5.65,0,0,1,1,1.85A1.44,1.44,0,0,1,241.12,64.54ZM235,44.82c-1.1.45-2.5,2-4.25,4.59s-2.6,4.48-2.6,5.68a1.43,1.43,0,0,0,.11.58,59.69,59.69,0,0,0,8.11-2.4c0-.41,0-.82,0-1.26A17.43,17.43,0,0,0,235,44.82Z" transform="translate(-10.11 -6.67)"/><path class="cls-3" d="M265.5,63.06a16.57,16.57,0,0,1-3.28.24A24.67,24.67,0,0,1,249,59.85a5.56,5.56,0,0,0-.17,1.33A19,19,0,0,0,249,63.1a12.46,12.46,0,0,1,.2,1.88c0,.72-.47,1.1-1.4,1.1a1.26,1.26,0,0,1-1.16-.59,8.5,8.5,0,0,1-1-4.62c0-.61,0-1.23.1-1.84a69.25,69.25,0,0,0,.65-10.24,7.62,7.62,0,0,0-.37-2.87c-.07-.14-.31-.24-.76-.28a1,1,0,0,1-.85-.82,11.19,11.19,0,0,1-.55-2.19c0-.72,1.23-1.23,3.73-1.54a41.41,41.41,0,0,1,4.66-.27,26.09,26.09,0,0,1,7.63,1c3.12,1,4.89,2.57,5.27,4.8a9.38,9.38,0,0,1,.17,1.6,2.92,2.92,0,0,1-.79,2.19,19.57,19.57,0,0,1-5.88,3.7c-2.16.86-4.35,1.68-6.57,2.54.71.88,2.15,1.57,4.27,2a25.44,25.44,0,0,0,4.9.48,11.32,11.32,0,0,0,3.66-.58,1.87,1.87,0,0,1,.34-.07c.48,0,.86.35,1.17,1a4.05,4.05,0,0,1,.34,1.64C266.7,62.24,266.29,62.89,265.5,63.06ZM260.64,46a20.09,20.09,0,0,0-6.47-1,26.39,26.39,0,0,0-4.89.48,8.82,8.82,0,0,1,0,.89c0,.51,0,1.3-.1,2.33s-.07,1.78-.07,2.29a15.93,15.93,0,0,0,.1,1.92c5.89-1.41,10.1-3.36,12.67-5.89a.9.9,0,0,1,.07-.17C262,46.53,261.53,46.26,260.64,46Z" transform="translate(-10.11 -6.67)"/><path class="cls-3" d="M286.36,59.2A26.41,26.41,0,0,1,279,63.34,20.48,20.48,0,0,1,272,65a2.41,2.41,0,0,1-2.36-1.06,5.75,5.75,0,0,1-.45-2.71,32.71,32.71,0,0,1,.34-4,62.92,62.92,0,0,0,.59-7.56c0-3-.45-4.86-1.34-5.41-1.06-.58-1.2-.75-1.2-1.4v-.55a5.71,5.71,0,0,0,0-.79c0-.85.37-1.3,1.13-1.3a19.33,19.33,0,0,1,2.7.62c1,.24,2,.51,3,.78A35,35,0,0,1,286.32,47a7.64,7.64,0,0,1,3.5,6.53C289.82,55.4,288.65,57.31,286.36,59.2Zm-5.75-11.37a51,51,0,0,0-8-2.53,27.58,27.58,0,0,1,.47,4.83,22.66,22.66,0,0,1-.2,3,43.56,43.56,0,0,0-.41,6.34V60.5a21.6,21.6,0,0,0,8.28-2,11.18,11.18,0,0,0,5.92-5.88,1.54,1.54,0,0,0,.07-.42C286.7,51,284.68,49.48,280.61,47.83Z" transform="translate(-10.11 -6.67)"/><path class="cls-3" d="M307.45,63.82a20.45,20.45,0,0,1-7.59,1.54q-3.6,0-5.21-2.16a9.69,9.69,0,0,1-1.33-5.61,15,15,0,0,1,.48-3.87,31.18,31.18,0,0,0,.92-7,3.76,3.76,0,0,1-1.85-3.08,1.18,1.18,0,0,1,1.34-1.33c.58,0,2,.13,2.57.13a28.14,28.14,0,0,0,5-.54c1.64-.31,3.28-.65,4.92-1a11,11,0,0,1,1.23-.11c1.13,0,1.68.72,1.68,2.12a4.2,4.2,0,0,1-.07.79c-.1.55-.54.93-1.26,1.17-.48.13-2.26.41-5.38.78-2.53.31-4.14.75-4.86,1.27a9.87,9.87,0,0,0-.24,2.29,8.87,8.87,0,0,0,0,1h.48a17.8,17.8,0,0,0,5.1-.93,19.49,19.49,0,0,1,5-.95,2.36,2.36,0,0,1,2.33,2.43,1,1,0,0,1-.48,1c-.18.07-1.17.38-3,.89-4.55,1.23-8,2.09-10.5,2.57-.28.3-.41,1.57-.41,3.8a4.14,4.14,0,0,0,.17,1.71,4.54,4.54,0,0,0,2.7.61,15.29,15.29,0,0,0,5.51-1.23,12.64,12.64,0,0,0,4.73-2.91.35.35,0,0,0,.1-.24,1.2,1.2,0,0,0-.07-.27c-.14-.31.44-.62.85-.62s.93.34,1.31,1a3.27,3.27,0,0,1,.61,1.72Q312.28,61.87,307.45,63.82Z" transform="translate(-10.11 -6.67)"/><path class="cls-3" d="M334.92,64.19a1.27,1.27,0,0,1-1.34,1c-.68,0-2.05-1-4.1-2.91-1.3-1.23-2.57-2.53-3.77-3.9-1.95-2.22-4-4.35-6.09-6.37a50,50,0,0,0-.89,10.17c0,1,0,1.88.1,2.6a.92.92,0,0,1-.85.69,3.23,3.23,0,0,1-1.37-.35c-.59-.24-.86-1.61-.86-4.1,0-1.82.17-5.72.55-11.68,0-1.06.07-1.84.07-2.32a9.77,9.77,0,0,0-.28-1.85,8.94,8.94,0,0,1-.24-1.75,2.16,2.16,0,0,1,2-2c.54,0,1.09.58,1.6,1.71l1,2.57a46.31,46.31,0,0,0,5.2,7.18,28.45,28.45,0,0,0,6.68,5.82A10.59,10.59,0,0,0,332.8,55c0-1.68-.21-4.52-.65-8.56-.28-2.39-.42-3.86-.42-4.38a2.53,2.53,0,0,1,.42-1.37,1.3,1.3,0,0,1,1.16-.75,1.85,1.85,0,0,1,1.4.79,2.38,2.38,0,0,1,.65,1.57,5.4,5.4,0,0,1-.27,1.3,5.35,5.35,0,0,0-.28,1.3l0,.14c0,1.16.24,3.18.55,6.06a53.84,53.84,0,0,1,.48,6A21.09,21.09,0,0,1,334.92,64.19Z" transform="translate(-10.11 -6.67)"/></svg>